<svg xmlns="http://www.w3.org/2000/svg" viewBox="0 0 100 100" width="100" height="100">
  <!-- iOS-style rounded rectangle background -->
  <defs>
    <!-- iOS blue gradient -->
    <linearGradient id="iosBlue" x1="0%" y1="0%" x2="100%" y2="100%">
      <stop offset="0%" style="stop-color:#007AFF;stop-opacity:1" />
      <stop offset="100%" style="stop-color:#0051D5;stop-opacity:1" />
    </linearGradient>
    
    <!-- Shadow filter -->
    <filter id="shadow" x="-20%" y="-20%" width="140%" height="140%">
      <feDropShadow dx="0" dy="2" stdDeviation="3" flood-color="#000000" flood-opacity="0.25"/>
    </filter>
  </defs>
  
  <!-- iOS-style rounded rectangle -->
  <rect x="5" y="5" width="90" height="90" rx="20" ry="20" fill="url(#iosBlue)" filter="url(#shadow)"/>
  
  <!-- Stopwatch/Timer Icon -->
  <!-- Main circle -->
  <circle cx="50" cy="52" r="25" fill="none" stroke="white" stroke-width="3"/>
  
  <!-- Clock hands -->
  <!-- Hour hand -->
  <line x1="50" y1="52" x2="50" y2="37" stroke="white" stroke-width="3" stroke-linecap="round"/>
  <!-- Minute hand -->
  <line x1="50" y1="52" x2="62" y2="47" stroke="white" stroke-width="2.5" stroke-linecap="round"/>
  
  <!-- Center dot -->
  <circle cx="50" cy="52" r="2.5" fill="white"/>
  
  <!-- Timer button on top -->
  <rect x="47" y="22" width="6" height="8" rx="3" ry="3" fill="white"/>
  
  <!-- Quick tick marks for precision -->
  <line x1="50" y1="30" x2="50" y2="32" stroke="white" stroke-width="1.5"/>
  <line x1="68" y1="52" x2="70" y2="52" stroke="white" stroke-width="1.5"/>
  <line x1="50" y1="74" x2="50" y2="72" stroke="white" stroke-width="1.5"/>
  <line x1="32" y1="52" x2="30" y2="52" stroke="white" stroke-width="1.5"/>
  
  <!-- Running/pace indicators (small dots) -->
  <circle cx="62" cy="37" r="1.5" fill="white" opacity="0.8"/>
  <circle cx="67" cy="42" r="1.5" fill="white" opacity="0.6"/>
  <circle cx="67" cy="62" r="1.5" fill="white" opacity="0.4"/>
</svg>
